<svg aria-hidden="true" focussable="false" xmlns="http://www.w3.org/2000/svg" viewBox="0 0 75 75"><defs><style>.cls-3{fill:#fff}.cls-4{fill:#5e7d96}</style></defs><g id="ideas"><path id="circle" fill="#fff" stroke="#fff" stroke-miterlimit="10" d="M37.5 3A34.5 34.5 0 1072 37.5 34.54 34.54 0 0037.5 3zm0 64.52a30 30 0 1130-30 30.06 30.06 0 01-30 30z" opacity=".33"/><g id="bulb"><g id="bulb-main"><path d="M37.62 55.83h4.06q.07-.62.12-1.26c0-.42 0-.8.05-1.19H33.6l.16 2.43zM41.86 48.72a3.12 3.12 0 01.14-1.13 3.39 3.39 0 01.88-1.42l.38-.36c1.15-1.13 3.56-3.46 4.18-5.64a11.13 11.13 0 00.45-3 10.2 10.2 0 00-20.4 0 11 11 0 00.45 3c0 .13.09.32.18.57a9 9 0 002.63 3.43 13.31 13.31 0 011.91 2.08 5.21 5.21 0 01.93 2.55v2.85h8.29z" class="cls-3"/><path d="M37.67 26.16a11 11 0 00-11 11 12.12 12.12 0 00.48 3.23c0 .13.1.34.19.6a9.71 9.71 0 002.85 3.76A12.87 12.87 0 0132 46.73a4.33 4.33 0 01.57 1.27 4.77 4.77 0 01.17.87v2.82h9.95v-3a2.24 2.24 0 01.09-.86 2.53 2.53 0 01.67-1.07l.36-.36c1.21-1.17 3.73-3.61 4.41-6a12.09 12.09 0 00.48-3.21 11 11 0 00-11.03-11.03zm4.19 22.56v2.11h-8.29v-2a5.21 5.21 0 00-.93-2.55 13.31 13.31 0 00-1.91-2.08 9 9 0 01-2.63-3.43c-.09-.25-.14-.44-.18-.57a11 11 0 01-.45-3 10.2 10.2 0 0120.4 0 11.13 11.13 0 01-.45 3c-.62 2.18-3 4.51-4.18 5.64l-.38.36a3.39 3.39 0 00-.86 1.39 3.12 3.12 0 00-.14 1.13zM32.76 53.39l.24 3.25h9.42l.05-.36c.07-.53.13-1.09.17-1.68v-1.24m-.87.83v.36q0 .64-.12 1.26h-7.89l-.11-1.6z" class="cls-4"/></g><g id="bulb-lights" opacity=".7"><path d="M55.66 30.88l-3.55 1-1.39.49.44 1.6 1.53-.34 3.48-1zM19.43 30.77l3.5 1.2 1.35.57-.51 1.57-1.52-.42-3.42-1.17zM26.09 21.41l2.32 3.18.84 1.32L27.84 27l-1.07-1.29-2.28-3.11zM49.19 21.62l-2.32 3.18-.87 1.31 1.41 1.06 1.06-1.28 2.28-3.11zM36.7 18.36v3.84l.11 1.53h1.72l.09-1.63v-3.77z" class="cls-3"/></g></g></g></svg>