<svg aria-hidden="true" focussable="false" xmlns="http://www.w3.org/2000/svg" viewBox="0 0 75 75"><defs><style>.cls-5{fill:#fff}.cls-4{stroke-miterlimit:10;fill:none;stroke:#29abe2}</style></defs><g id="design-icon"><path id="circle" fill="#fff" stroke="#fff" stroke-miterlimit="10" d="M35.53 4a33.53 33.53 0 1033.54 33.5A33.57 33.57 0 0035.53 4zm0 62.71A29.18 29.18 0 1164.71 37.5a29.21 29.21 0 01-29.18 29.18z" opacity=".38"/><g id="lines" opacity=".72"><path d="M42.01 11.99l-30.6 36.83M48.77 14.93L15.76 54.66M24.45 13.32L10.19 30.49M34.42 42.38L20.15 59.55M33.33 11.99L8.9 41.39" class="cls-4"/></g><g id="pencil"><path d="M39.77 31.34l19.91-20a7.34 7.34 0 005.83 5.89l-20 20.29a7 7 0 01-4-2.16 6.88 6.88 0 01-1.74-4.02z" class="cls-5"/><path d="M61.08 10.29l2.92-3A6.4 6.4 0 0065.62 11a6.51 6.51 0 004.21 2.05l-3 3.13a7 7 0 01-5.72-5.89zM38.36 33.55l-5 10 10-5a4.94 4.94 0 01-4.1-1.72 4.75 4.75 0 01-.9-3.28zM65.08 6.34l2.16-2.25a2 2 0 011.47 0c.89.35.83.29 2.43 1.89a5.5 5.5 0 011.76 2.78 2 2 0 010 1.05c-.74.71-1.52 1.55-2.26 2.27a8 8 0 01-3.56-2.14 8.44 8.44 0 01-2-3.6z" class="cls-5"/></g></g></svg>