<svg aria-hidden="true" focussable="false" xmlns="http://www.w3.org/2000/svg" viewBox="0 0 75 75"><defs><style>.cls-2{fill:none;stroke-miterlimit:10;stroke:#29abe2;stroke-width:.5px}.cls-4{fill:#fff}</style></defs><g id="build"><path id="square" fill="none" stroke="#fff" stroke-miterlimit="10" stroke-width="2" d="M7.5 7.5h60v60h-60z"/><g id="lines"><path d="M19.86 13.4l-6.48 7.8M23.33 16.24l-6.48 7.8M21.29 14.02l-6.99 8.42M16.14 13.68l-3.02 3.64M23.82 20.3l-3.02 3.64M22.34 14.91l-7.11 8.57M18.02 13.4l-5.18 6.23M23.81 18.02l-5.17 6.22M37.95 13.4l-6.48 7.8M41.42 16.24l-6.48 7.8M39.38 14.02l-6.99 8.42M34.23 13.68l-3.02 3.64M41.91 20.3l-3.02 3.64M40.44 14.91l-7.12 8.57M36.11 13.4l-5.17 6.23M41.91 18.02l-5.18 6.22M57.89 13.4l-6.49 7.8M61.36 16.24l-6.48 7.8M59.32 14.02l-6.99 8.42M54.17 13.68l-3.02 3.64M61.85 20.3l-3.02 3.64M60.37 14.91l-7.11 8.57M56.05 13.4l-5.18 6.23M61.84 18.02l-5.17 6.22M19.86 50.79l-6.48 7.8M23.33 53.63l-6.48 7.8M21.29 51.41l-6.99 8.42M16.14 51.07l-3.02 3.64M23.82 57.69l-3.02 3.64M22.34 52.3l-7.11 8.57M18.02 50.79l-5.18 6.23M23.81 55.41l-5.17 6.23M37.95 50.79l-6.48 7.8M41.42 53.63l-6.48 7.8M39.38 51.41l-6.99 8.42M34.23 51.07l-3.02 3.64M41.91 57.69l-3.02 3.64M40.44 52.3l-7.12 8.57M36.11 50.79l-5.17 6.23M41.91 55.41l-5.18 6.23M57.89 50.79l-6.49 7.8M61.36 53.63l-6.48 7.8M59.32 51.41l-6.99 8.42M54.17 51.07l-3.02 3.64M61.85 57.69l-3.02 3.64M60.37 52.3l-7.11 8.57M56.05 50.79l-5.18 6.23M61.84 55.41l-5.17 6.23M19.86 32.1l-6.48 7.8M23.33 34.93l-6.48 7.81M21.29 32.72l-6.99 8.42M16.14 32.38l-3.02 3.64M23.82 39l-3.02 3.64M22.34 33.61l-7.11 8.56M18.02 32.1l-5.18 6.22M23.81 36.71l-5.17 6.23M37.95 32.1l-6.48 7.8M41.42 34.93l-6.48 7.81M39.38 32.72l-6.99 8.42M34.23 32.38l-3.02 3.64M41.91 39l-3.02 3.64M40.44 33.61l-7.12 8.56M36.11 32.1l-5.17 6.22M41.91 36.71l-5.18 6.23M57.89 32.1l-6.49 7.8M61.36 34.93l-6.48 7.81M59.32 32.72l-6.99 8.42M54.17 32.38l-3.02 3.64M61.85 39l-3.02 3.64M60.37 33.61l-7.11 8.56M56.05 32.1l-5.18 6.22M61.84 36.71l-5.17 6.23" class="cls-2"/></g><g id="circles-op"><g id="circles" opacity=".38"><path d="M18.49 11.7a7.11 7.11 0 107.1 7.1 7.12 7.12 0 00-7.1-7.1zm0 13.29a6.19 6.19 0 116.18-6.19 6.2 6.2 0 01-6.18 6.2zM36.58 11.7a7.11 7.11 0 107.1 7.1 7.11 7.11 0 00-7.1-7.1zm0 13.29a6.19 6.19 0 116.18-6.19 6.19 6.19 0 01-6.18 6.2zM56.51 11.7a7.11 7.11 0 107.11 7.1 7.11 7.11 0 00-7.11-7.1zm0 13.29a6.19 6.19 0 116.19-6.19 6.2 6.2 0 01-6.19 6.2zM18.49 30.4a7.1 7.1 0 107.1 7.1 7.11 7.11 0 00-7.1-7.1zm0 13.28a6.18 6.18 0 116.18-6.18 6.19 6.19 0 01-6.18 6.18zM36.58 30.4a7.1 7.1 0 107.1 7.1 7.1 7.1 0 00-7.1-7.1zm0 13.28a6.18 6.18 0 116.18-6.18 6.18 6.18 0 01-6.18 6.18zM56.51 30.4a7.1 7.1 0 107.11 7.1 7.11 7.11 0 00-7.11-7.1zm0 13.28a6.18 6.18 0 116.19-6.18 6.19 6.19 0 01-6.19 6.18zM18.49 49.09a7.11 7.11 0 107.1 7.11 7.12 7.12 0 00-7.1-7.11zm0 13.29a6.19 6.19 0 116.18-6.18 6.2 6.2 0 01-6.18 6.18zM36.58 49.09a7.11 7.11 0 107.1 7.11 7.11 7.11 0 00-7.1-7.11zm0 13.29a6.19 6.19 0 116.18-6.18 6.19 6.19 0 01-6.18 6.18zM56.51 49.09a7.11 7.11 0 107.11 7.11 7.12 7.12 0 00-7.11-7.11zm0 13.29a6.19 6.19 0 116.19-6.18 6.2 6.2 0 01-6.19 6.18z" class="cls-4"/></g></g></g></svg>