<svg aria-hidden="true" focussable="false" xmlns="http://www.w3.org/2000/svg" viewBox="0 0 75 75"><path fill="#fff" d="M60.8 13.8a33.54 33.54 0 00-47.39 0l-.51.51-4-3.41-1 12.24 11.78-1.49L16.83 18l.4-.4a27.9 27.9 0 0119.88-8.24A28.12 28.12 0 119.57 43.12H4.39a9.09 9.09 0 00.15 2.22A33.5 33.5 0 1060.8 13.8"/><path fill="#3d94c8" fill-rule="evenodd" d="M40.79 33.42a4.71 4.71 0 10-6.79-.07c-3.59 1.38-5.8 5-5.8 9.32a12.23 12.23 0 002.23 6.51c1.81 2.46 3.55-2 6.85-2 2.48 0 4.85 4.07 6.62 2.28a10.1 10.1 0 002.71-6.69 9.85 9.85 0 00-5.82-9.35z"/></svg>