<svg id="Layer_1" data-name="Layer 1" xmlns="http://www.w3.org/2000/svg" xmlns:xlink="http://www.w3.org/1999/xlink" viewBox="0 0 75 75"><defs><style>.cls-1{fill:url(#linear-gradient);}.cls-2,.cls-4,.cls-7{fill:none;}.cls-2{stroke:#707070;}.cls-3{opacity:0.38;}.cls-5,.cls-8{fill:#fff;}.cls-5{stroke:#fff;}.cls-5,.cls-7{stroke-miterlimit:10;}.cls-6{opacity:0.72;}.cls-7{stroke:#29abe2;}</style><linearGradient id="linear-gradient" x1="-202.58" y1="633.5" x2="-202.58" y2="632.66" gradientTransform="matrix(253, 0, 0, -399, 51489.81, 252546.25)" gradientUnits="userSpaceOnUse"><stop offset="0" stop-color="#1c5888"/><stop offset="1" stop-color="#0f2d45"/></linearGradient></defs><g id="Rectangle_335" data-name="Rectangle 335"><rect class="cls-1" x="-248.89" y="-218.55" width="969.72" height="331.65"/><rect class="cls-2" x="-246.98" y="-218.13" width="965.89" height="330.82"/></g><g class="cls-3"><circle class="cls-4" cx="35.53" cy="37.5" r="29.18"/><path class="cls-5" d="M35.53,4A33.53,33.53,0,1,0,69.07,37.5,33.57,33.57,0,0,0,35.53,4Zm0,62.71A29.18,29.18,0,1,1,64.71,37.5,29.21,29.21,0,0,1,35.53,66.68Z"/></g><g class="cls-6"><line class="cls-7" x1="42.01" y1="11.99" x2="11.41" y2="48.82"/><line class="cls-7" x1="48.77" y1="14.93" x2="15.76" y2="54.66"/><line class="cls-7" x1="24.45" y1="13.32" x2="10.19" y2="30.49"/><line class="cls-7" x1="34.42" y1="42.38" x2="20.15" y2="59.55"/><line class="cls-7" x1="33.33" y1="11.99" x2="8.9" y2="41.39"/></g><path class="cls-8" d="M39.77,31.34l19.91-20a7.34,7.34,0,0,0,5.83,5.89q-10,10.14-20,20.29a7,7,0,0,1-4-2.16A6.88,6.88,0,0,1,39.77,31.34Z"/><path class="cls-8" d="M61.08,10.29l2.92-3A6.4,6.4,0,0,0,65.62,11a6.51,6.51,0,0,0,4.21,2.05l-3,3.13a7,7,0,0,1-5.72-5.89Z"/><path class="cls-8" d="M38.36,33.55l-5,10,10-5a4.94,4.94,0,0,1-4.1-1.72A4.75,4.75,0,0,1,38.36,33.55Z"/><path class="cls-8" d="M65.08,6.34l2.16-2.25a2,2,0,0,1,1.47,0c.89.35.83.29,2.43,1.89A5.5,5.5,0,0,1,72.9,8.76a2,2,0,0,1,0,1.05c-.74.71-1.52,1.55-2.26,2.27a8,8,0,0,1-3.56-2.14A8.44,8.44,0,0,1,65.08,6.34Z"/></svg>