<svg id="Layer_1" data-name="Layer 1" xmlns="http://www.w3.org/2000/svg" xmlns:xlink="http://www.w3.org/1999/xlink" viewBox="0 0 75 75"><defs><style>.cls-1{fill:url(#linear-gradient);}.cls-2,.cls-4{fill:none;}.cls-2{stroke:#707070;}.cls-3{opacity:0.33;}.cls-5,.cls-6{fill:#fff;}.cls-5{stroke:#fff;stroke-miterlimit:10;}.cls-7{fill:#5e7d96;}.cls-8{opacity:0.7;}</style><linearGradient id="linear-gradient" x1="-117.82" y1="633.5" x2="-117.82" y2="632.66" gradientTransform="matrix(253, 0, 0, -399, 30130.42, 252546.25)" gradientUnits="userSpaceOnUse"><stop offset="0" stop-color="#1c5888"/><stop offset="1" stop-color="#0f2d45"/></linearGradient></defs><g id="Rectangle_335" data-name="Rectangle 335"><rect class="cls-1" x="-164.13" y="-218.55" width="969.72" height="331.65"/><rect class="cls-2" x="-162.22" y="-218.13" width="965.89" height="330.82"/></g><g class="cls-3"><circle class="cls-4" cx="37.5" cy="37.5" r="30.02"/><path class="cls-5" d="M37.5,3A34.5,34.5,0,1,0,72,37.5,34.54,34.54,0,0,0,37.5,3Zm0,64.52a30,30,0,1,1,30-30A30.06,30.06,0,0,1,37.5,67.52Z"/></g><path class="cls-6" d="M37.62,55.83h4.06q.07-.62.12-1.26c0-.42,0-.8.05-1.19H33.6l.16,2.43Z"/><path class="cls-6" d="M41.86,48.72A3.12,3.12,0,0,1,42,47.59a3.39,3.39,0,0,1,.88-1.42l.38-.36c1.15-1.13,3.56-3.46,4.18-5.64a11.13,11.13,0,0,0,.45-3,10.2,10.2,0,0,0-20.4,0,11,11,0,0,0,.45,3c0,.13.09.32.18.57a9,9,0,0,0,2.63,3.43,13.31,13.31,0,0,1,1.91,2.08,5.21,5.21,0,0,1,.93,2.55v2.85h8.29Z"/><path class="cls-7" d="M37.67,26.16a11,11,0,0,0-11,11,12.12,12.12,0,0,0,.48,3.23c0,.13.1.34.19.6a9.71,9.71,0,0,0,2.85,3.76A12.87,12.87,0,0,1,32,46.73,4.33,4.33,0,0,1,32.57,48a4.77,4.77,0,0,1,.17.87v2.82h9.95v-3a2.24,2.24,0,0,1,.09-.86,2.53,2.53,0,0,1,.67-1.07l.36-.36c1.21-1.17,3.73-3.61,4.41-6a12.09,12.09,0,0,0,.48-3.21A11,11,0,0,0,37.67,26.16Zm4.19,22.56v2.11H33.57v-2a5.21,5.21,0,0,0-.93-2.55,13.31,13.31,0,0,0-1.91-2.08,9,9,0,0,1-2.63-3.43c-.09-.25-.14-.44-.18-.57a11,11,0,0,1-.45-3,10.2,10.2,0,0,1,20.4,0,11.13,11.13,0,0,1-.45,3c-.62,2.18-3,4.51-4.18,5.64l-.38.36A3.39,3.39,0,0,0,42,47.59,3.12,3.12,0,0,0,41.86,48.72Z"/><path class="cls-7" d="M32.76,53.39,33,56.64h.38l4.25,0h4.79l.05-.36c.07-.53.13-1.09.17-1.68,0-.43,0-.84,0-1.24m-.87.83c0,.12,0,.23,0,.36q0,.64-.12,1.26H33.76l-.11-1.6Z"/><g class="cls-8"><path class="cls-6" d="M55.66,30.88l-3.55,1-1.39.49.44,1.6,1.53-.34,3.48-1Z"/><path class="cls-6" d="M19.43,30.77l3.5,1.2,1.35.57-.51,1.57-1.52-.42-3.42-1.17Z"/><path class="cls-6" d="M26.09,21.41l2.32,3.18.84,1.32L27.84,27l-1.07-1.29-2.28-3.11Z"/><path class="cls-6" d="M49.19,21.62,46.87,24.8,46,26.11l1.41,1.06,1.06-1.28,2.28-3.11Z"/><path class="cls-6" d="M36.7,18.36l0,3.84.11,1.53h1.72l.09-1.63,0-3.77Z"/></g></svg>