<svg id="Layer_1" data-name="Layer 1" xmlns="http://www.w3.org/2000/svg" xmlns:xlink="http://www.w3.org/1999/xlink" viewBox="0 0 75 75"><defs><style>.cls-1{fill:url(#linear-gradient);}.cls-2{fill:none;stroke:#707070;}.cls-3{fill:#5e7d96;stroke:#272b61;stroke-miterlimit:10;fill-rule:evenodd;}.cls-4{fill:#fff;}</style><linearGradient id="linear-gradient" x1="-33.98" y1="633.5" x2="-33.98" y2="632.66" gradientTransform="matrix(253, 0, 0, -399, 9000.7, 252546.25)" gradientUnits="userSpaceOnUse"><stop offset="0" stop-color="#1c5888"/><stop offset="1" stop-color="#0f2d45"/></linearGradient></defs><g id="Rectangle_335" data-name="Rectangle 335"><rect class="cls-1" x="-80.28" y="-218.55" width="969.72" height="331.65"/><rect class="cls-2" x="-78.37" y="-218.13" width="965.89" height="330.82"/></g><path class="cls-3" d="M35.08,24a5,5,0,1,0-7.19-.08c-3.82,1.47-6.17,5.35-6.17,9.93a12.94,12.94,0,0,0,2.38,6.93c1.92,2.63,3.78-2.14,7.28-2.14,2.65,0,5.18,4.33,7.06,2.42a10.68,10.68,0,0,0,2.88-7.11A10.49,10.49,0,0,0,35.08,24Z"/><path class="cls-3" d="M21.6,30.31A5,5,0,1,0,13,26.79a5,5,0,0,0,1.39,3.44c-3.83,1.47-6.18,5.35-6.18,9.93a13,13,0,0,0,2.38,6.93C12.54,49.71,14.39,45,17.9,45c2.65,0,5.17,4.33,7.05,2.42a10.69,10.69,0,0,0,2.89-7.12A10.46,10.46,0,0,0,21.6,30.31Z"/><path class="cls-3" d="M48.62,30.31a5,5,0,1,0-7.19-.08c-3.83,1.47-6.18,5.35-6.18,9.93a13,13,0,0,0,2.38,6.93C39.56,49.71,41.42,45,44.92,45c2.65,0,5.18,4.33,7,2.42a10.64,10.64,0,0,0,2.89-7.12A10.46,10.46,0,0,0,48.62,30.31Z"/><path class="cls-4" d="M30.43,8.37A22.72,22.72,0,1,1,7.71,31.09,22.74,22.74,0,0,1,30.43,8.37m0-4.87A27.59,27.59,0,1,0,58,31.09,27.59,27.59,0,0,0,30.43,3.5Z"/><path class="cls-4" d="M68.61,71.5,61,65,45.08,50.05l4.51-4.22A182,182,0,0,1,65.81,61.06c2.26,2.39,4.37,4.77,6.35,7.11Z"/></svg>