<svg id="Layer_1" data-name="Layer 1" xmlns="http://www.w3.org/2000/svg" xmlns:xlink="http://www.w3.org/1999/xlink" viewBox="0 0 75 75"><defs><style>.cls-1{fill:url(#linear-gradient);}.cls-2,.cls-3{fill:none;}.cls-2{stroke:#707070;}.cls-4{fill:#fff;}.cls-5{fill:#3d94c8;stroke:#fff;stroke-miterlimit:10;stroke-width:0.5px;fill-rule:evenodd;}</style><linearGradient id="linear-gradient" x1="-455.72" y1="633.5" x2="-455.72" y2="632.66" gradientTransform="matrix(253, 0, 0, -399, 115280.9, 252546.25)" gradientUnits="userSpaceOnUse"><stop offset="0" stop-color="#1c5888"/><stop offset="1" stop-color="#0f2d45"/></linearGradient></defs><g id="Rectangle_335" data-name="Rectangle 335"><rect class="cls-1" x="-502.03" y="-218.55" width="969.72" height="331.65"/><rect class="cls-2" x="-500.12" y="-218.13" width="965.89" height="330.82"/></g><polygon class="cls-3" points="61.98 12.62 61.97 12.62 61.97 12.62 61.98 12.62"/><path class="cls-4" d="M13.05,13.44l-.52.53L8.46,10.5,7.41,22.92l12-1.51-2.85-3.69.41-.41A28.33,28.33,0,0,1,37.11,8.94h0a28.55,28.55,0,1,1-28,34.26l-5.27,0A10,10,0,0,0,4,45.49,34,34,0,0,0,70.81,33.05a34.21,34.21,0,0,0-9.66-19.61l.82-.83-.82.83A34.07,34.07,0,0,0,13.05,13.44Z"/><path class="cls-5" d="M40.84,33.36A4.77,4.77,0,1,0,34,33.29c-3.64,1.4-5.88,5.1-5.88,9.46a12.35,12.35,0,0,0,2.27,6.61c1.83,2.5,3.6-2,6.94-2,2.53,0,4.93,4.12,6.72,2.3a10.13,10.13,0,0,0,2.76-6.78A10,10,0,0,0,40.84,33.36Z"/></svg>